<svg width="220" height="60" viewBox="0 0 220 60" fill="none" xmlns="http://www.w3.org/2000/svg">
  <defs>
    <linearGradient id="sl1" x1="0" y1="0" x2="0" y2="1">
      <stop offset="0%" stop-color="#145E58"/>
      <stop offset="100%" stop-color="#0A3835"/>
    </linearGradient>
    <linearGradient id="sl2" x1="0" y1="0" x2="0" y2="1">
      <stop offset="0%" stop-color="#1E9688"/>
      <stop offset="100%" stop-color="#0F5C56"/>
    </linearGradient>
    <linearGradient id="sl3" x1="0" y1="0" x2="0" y2="1">
      <stop offset="0%" stop-color="#3EC4B3"/>
      <stop offset="100%" stop-color="#1A8C7E"/>
    </linearGradient>
    <linearGradient id="sl4" x1="0" y1="0" x2="0" y2="1">
      <stop offset="0%" stop-color="#F5844A"/>
      <stop offset="100%" stop-color="#E25A14"/>
    </linearGradient>
    <filter id="slsh" x="-30%" y="-30%" width="160%" height="180%">
      <feDropShadow dx="0" dy="1.5" stdDeviation="1.5" flood-color="#0A3835" flood-opacity="0.13"/>
    </filter>
  </defs>

  <ellipse cx="28" cy="50" rx="18" ry="5" fill="url(#sl1)" filter="url(#slsh)"/>
  <ellipse cx="24" cy="48" rx="6" ry="1.5" fill="white" opacity="0.07"/>
  <ellipse cx="28" cy="40" rx="14" ry="4" fill="url(#sl2)" transform="rotate(-2 28 40)" filter="url(#slsh)"/>
  <ellipse cx="24" cy="38.5" rx="5" ry="1.2" fill="white" opacity="0.08" transform="rotate(-2 24 38.5)"/>
  <ellipse cx="28.5" cy="31.5" rx="9.5" ry="3.5" fill="url(#sl3)" transform="rotate(1.5 28.5 31.5)" filter="url(#slsh)"/>
  <ellipse cx="26" cy="30" rx="3.5" ry="1" fill="white" opacity="0.10" transform="rotate(1.5 26 30)"/>
  <ellipse cx="28" cy="24" rx="6" ry="3" fill="url(#sl4)" transform="rotate(-1 28 24)" filter="url(#slsh)"/>
  <ellipse cx="26" cy="22.5" rx="2" ry="0.8" fill="white" opacity="0.24" transform="rotate(-1 26 22.5)"/>

  <line x1="11" y1="45.2" x2="45" y2="45.2" stroke="rgba(255,255,255,0.85)" stroke-width="0.8" opacity="0.9"/>
  <line x1="15" y1="36.2" x2="41" y2="36.2" stroke="rgba(255,255,255,0.85)" stroke-width="0.7" opacity="0.85"/>
  <line x1="20" y1="28.0" x2="37" y2="28.0" stroke="rgba(255,255,255,0.85)" stroke-width="0.65" opacity="0.80"/>

  <ellipse cx="28" cy="55" rx="16" ry="2.5" fill="#0A3835" opacity="0.05"/>

  <text font-family="Outfit, sans-serif" font-size="24" letter-spacing="-1.0">
    <tspan x="57" y="43" font-weight="700" fill="#0A3835">team</tspan><tspan dy="0" font-weight="400" fill="#F06A28">pura</tspan>
  </text>
  <text x="58" y="53" font-family="Outfit, sans-serif" font-weight="400" font-size="6" letter-spacing="2.4" fill="#9db8b5">PEOPLE PLATFORM</text>
</svg>
